<?xml version="1.0" encoding="UTF-8" standalone="no"?>
<!-- Created with Inkscape (http://www.inkscape.org/) -->

<svg
   xmlns:dc="http://purl.org/dc/elements/1.1/"
   xmlns:cc="http://creativecommons.org/ns#"
   xmlns:rdf="http://www.w3.org/1999/02/22-rdf-syntax-ns#"
   xmlns:svg="http://www.w3.org/2000/svg"
   xmlns="http://www.w3.org/2000/svg"
   xmlns:sodipodi="http://sodipodi.sourceforge.net/DTD/sodipodi-0.dtd"
   xmlns:inkscape="http://www.inkscape.org/namespaces/inkscape"
   width="436.94858"
   height="460.74451"
   viewBox="0 0 436.94858 460.74451"
   id="svg2"
   version="1.1"
   inkscape:version="0.91 r13725"
   sodipodi:docname="schedule.svg">
  <defs
     id="defs4" />
  <sodipodi:namedview
     id="base"
     pagecolor="#181818"
     bordercolor="#666666"
     borderopacity="1.0"
     inkscape:pageopacity="0"
     inkscape:pageshadow="2"
     inkscape:zoom="1.4"
     inkscape:cx="261.01947"
     inkscape:cy="276.84555"
     inkscape:document-units="px"
     inkscape:current-layer="layer1"
     showgrid="false"
     units="px"
     inkscape:snap-bbox="false"
     inkscape:bbox-paths="true"
     inkscape:bbox-nodes="true"
     inkscape:snap-bbox-midpoints="true"
     inkscape:snap-bbox-edge-midpoints="true"
     inkscape:snap-nodes="false"
     inkscape:window-width="1920"
     inkscape:window-height="1023"
     inkscape:window-x="0"
     inkscape:window-y="31"
     inkscape:window-maximized="1"
     fit-margin-top="0"
     fit-margin-left="0"
     fit-margin-right="0"
     fit-margin-bottom="0" />
  <metadata
     id="metadata7">
    <rdf:RDF>
      <cc:Work
         rdf:about="">
        <dc:format>image/svg+xml</dc:format>
        <dc:type
           rdf:resource="http://purl.org/dc/dcmitype/StillImage" />
        <dc:title></dc:title>
      </cc:Work>
    </rdf:RDF>
  </metadata>
  <g
     inkscape:label="Layer 1"
     inkscape:groupmode="layer"
     id="layer1"
     transform="translate(18.474288,-610.09191)">
    <rect
       style="opacity:1;fill:#73c936;fill-opacity:1;stroke:#73c936;stroke-width:0;stroke-linecap:square;stroke-linejoin:miter;stroke-miterlimit:4;stroke-dasharray:none;stroke-opacity:1"
       id="rect4136"
       width="436.94858"
       height="436.94858"
       x="-18.474283"
       y="633.88782"
       ry="39.28574" />
    <rect
       style="opacity:1;fill:#181818;fill-opacity:1;stroke:#73c936;stroke-width:0;stroke-linecap:square;stroke-linejoin:miter;stroke-miterlimit:4;stroke-dasharray:none;stroke-opacity:1"
       id="rect4218"
       width="368.70566"
       height="53.538094"
       x="17.299471"
       y="677.46863"
       ry="16.428572" />
    <path
       style="fill:#73c93f;fill-opacity:0.94117647;fill-rule:evenodd;stroke:#73c936;stroke-width:31.37222672;stroke-linecap:round;stroke-linejoin:miter;stroke-miterlimit:4;stroke-dasharray:none;stroke-opacity:1"
       d="m 102.87259,684.81565 0,-58.81422"
       id="path4138-3"
       inkscape:connector-curvature="0"
       sodipodi:nodetypes="cc" />
    <path
       style="fill:#73c93f;fill-opacity:0.94117647;fill-rule:evenodd;stroke:#73c936;stroke-width:31.37222672;stroke-linecap:round;stroke-linejoin:miter;stroke-miterlimit:4;stroke-dasharray:none;stroke-opacity:1"
       d="m 301.16802,684.81565 0,-58.81422"
       id="path4138-3-6"
       inkscape:connector-curvature="0"
       sodipodi:nodetypes="cc" />
    <g
       style="font-style:normal;font-weight:normal;font-size:217.60986328px;line-height:125%;font-family:sans-serif;letter-spacing:0px;word-spacing:0px;fill:#181818;fill-opacity:1;stroke:none;stroke-width:1px;stroke-linecap:butt;stroke-linejoin:miter;stroke-opacity:1"
       id="text4204">
      <path
         d="m 136.43374,834.21428 q -16.57575,0 -24.96988,16.36324 -8.28788,16.25698 -8.28788,48.98347 0,32.62023 8.28788,48.98347 8.39413,16.25698 24.96988,16.25698 16.68201,0 24.96988,-16.25698 8.39413,-16.36324 8.39413,-48.98347 0,-32.72649 -8.39413,-48.98347 -8.28787,-16.36324 -24.96988,-16.36324 z m 0,-17.00078 q 26.66996,0 40.6956,21.14471 14.13189,21.03846 14.13189,61.20278 0,40.05806 -14.13189,61.20277 -14.02564,21.03845 -40.6956,21.03845 -26.66996,0 -40.801848,-21.03845 -14.025636,-21.14471 -14.025636,-61.20277 0,-40.16432 14.025636,-61.20278 14.131888,-21.14471 40.801848,-21.14471 z"
         style="fill:#181818;fill-opacity:1"
         id="path4214"
         inkscape:connector-curvature="0" />
      <path
         d="m 274.99002,834.21428 q -16.57576,0 -24.96989,16.36324 -8.28787,16.25698 -8.28787,48.98347 0,32.62023 8.28787,48.98347 8.39413,16.25698 24.96989,16.25698 16.682,0 24.96988,-16.25698 8.39413,-16.36324 8.39413,-48.98347 0,-32.72649 -8.39413,-48.98347 -8.28788,-16.36324 -24.96988,-16.36324 z m 0,-17.00078 q 26.66995,0 40.69559,21.14471 14.13189,21.03846 14.13189,61.20278 0,40.05806 -14.13189,61.20277 -14.02564,21.03845 -40.69559,21.03845 -26.66996,0 -40.80185,-21.03845 -14.02564,-21.14471 -14.02564,-61.20277 0,-40.16432 14.02564,-61.20278 14.13189,-21.14471 40.80185,-21.14471 z"
         style="fill:#181818;fill-opacity:1"
         id="path4216"
         inkscape:connector-curvature="0" />
    </g>
  </g>
</svg>
