<?xml version="1.0" encoding="UTF-8" standalone="no"?>
<!-- Created with Inkscape (http://www.inkscape.org/) -->

<svg
   xmlns:dc="http://purl.org/dc/elements/1.1/"
   xmlns:cc="http://creativecommons.org/ns#"
   xmlns:rdf="http://www.w3.org/1999/02/22-rdf-syntax-ns#"
   xmlns:svg="http://www.w3.org/2000/svg"
   xmlns="http://www.w3.org/2000/svg"
   xmlns:sodipodi="http://sodipodi.sourceforge.net/DTD/sodipodi-0.dtd"
   xmlns:inkscape="http://www.inkscape.org/namespaces/inkscape"
   width="79.641098mm"
   height="22.62149mm"
   viewBox="0 0 282.19287 80.154887"
   id="svg2"
   version="1.1"
   inkscape:version="0.91 r13725"
   sodipodi:docname="tsoding.svg">
  <defs
     id="defs4" />
  <sodipodi:namedview
     id="base"
     pagecolor="#181818"
     bordercolor="#666666"
     borderopacity="1.0"
     inkscape:pageopacity="0"
     inkscape:pageshadow="2"
     inkscape:zoom="1.4"
     inkscape:cx="262.73568"
     inkscape:cy="-4.9907131"
     inkscape:document-units="px"
     inkscape:current-layer="layer1"
     showgrid="false"
     fit-margin-top="0"
     fit-margin-left="0"
     fit-margin-right="0"
     fit-margin-bottom="0"
     inkscape:window-width="1920"
     inkscape:window-height="1023"
     inkscape:window-x="0"
     inkscape:window-y="31"
     inkscape:window-maximized="1" />
  <metadata
     id="metadata7">
    <rdf:RDF>
      <cc:Work
         rdf:about="">
        <dc:format>image/svg+xml</dc:format>
        <dc:type
           rdf:resource="http://purl.org/dc/dcmitype/StillImage" />
        <dc:title></dc:title>
      </cc:Work>
    </rdf:RDF>
  </metadata>
  <g
     inkscape:label="Layer 1"
     inkscape:groupmode="layer"
     id="layer1"
     transform="translate(-278.97144,-133.70475)">
    <g
       style="font-style:normal;font-variant:normal;font-weight:normal;font-stretch:normal;font-size:83.58174133px;line-height:125%;font-family:Cantarell;-inkscape-font-specification:Cantarell;letter-spacing:0px;word-spacing:0px;fill:#e4e4ef;fill-opacity:1;stroke:none;stroke-width:1px;stroke-linecap:butt;stroke-linejoin:miter;stroke-opacity:1"
       id="text4136">
      <path
         d="m 278.97144,133.70475 0,6.10147 19.30738,0 0,51.90426 6.93728,0 0,-51.90426 19.39097,0 0,-6.10147 -45.63563,0 z"
         style=""
         id="path4160" />
      <path
         d="m 330.241,162.45687 c 0,6.35221 5.43281,8.35817 8.6925,9.86265 l 6.26863,2.42387 c 3.34327,1.25372 7.52236,2.67461 7.7731,6.51937 0,4.01193 -4.42983,5.59998 -8.85966,5.59998 -4.93132,0 -9.69548,-1.00298 -14.2089,-2.7582 l 0,6.10147 c 3.6776,1.58805 8.60892,2.34029 14.79397,2.34029 6.18505,0 10.61488,-1.8388 13.37308,-5.34923 1.33731,-1.8388 2.08954,-4.09551 2.08954,-6.35222 0,-2.34029 -0.75223,-4.59699 -2.34029,-6.26863 -1.50447,-1.67163 -2.84177,-3.00894 -8.35817,-5.0149 l -6.18505,-2.25671 c -1.8388,-0.66865 -3.09252,-1.33731 -3.67759,-1.75522 -1.42089,-0.91939 -2.42388,-1.58805 -2.42388,-4.01192 0,-0.83582 0.41791,-2.34029 1.33731,-3.17611 2.17313,-2.00596 5.01491,-2.59103 8.6925,-2.59103 6.51938,0 10.69847,3.6776 10.69847,3.6776 l 0,-6.10147 c -3.6776,-1.75522 -6.18505,-2.92536 -11.28354,-2.92536 -8.52534,0 -16.04769,3.51043 -16.38202,12.03577 z"
         style=""
         id="path4162" />
      <path
         d="m 387.73218,156.10466 c 8.19101,0 12.62084,6.93728 12.62084,15.5462 0,8.60892 -4.34625,15.37904 -12.62084,15.37904 -8.19101,0 -12.28652,-6.8537 -12.28652,-15.37904 0,-8.52534 4.17909,-15.5462 12.28652,-15.5462 z m 0,36.44164 c 12.3701,0 19.72529,-8.35818 19.72529,-20.89544 0,-12.62084 -7.27161,-21.22976 -19.72529,-21.22976 -12.3701,0 -19.39096,8.60892 -19.39096,21.22976 0,12.53726 7.02086,20.89544 19.39096,20.89544 z"
         style=""
         id="path4164" />
      <path
         d="m 435.66239,186.77916 c -8.85967,0 -13.03876,-6.10147 -13.03876,-15.1283 0,-8.94324 4.17909,-15.71337 13.12234,-15.71337 3.1761,0 6.10147,0.50149 9.02683,1.75522 l 0,26.57899 c -2.84178,1.58806 -5.01491,2.50746 -9.11041,2.50746 z m -1.50447,5.76714 c 4.01192,0 7.85668,-1.33731 11.45069,-3.6776 l 1.17015,2.84178 4.93132,0 0,-56.08335 -6.93728,0 0,16.71635 c -3.17611,-1.33731 -6.4358,-1.92238 -9.69549,-1.92238 -5.51639,0 -10.11339,1.75522 -13.79098,5.34923 -3.84476,3.84476 -5.76714,8.94325 -5.76714,15.88053 0,12.03577 6.26863,20.89544 18.63873,20.89544 z"
         style=""
         id="path4166" />
      <path
         d="m 463.39325,151.42408 0,40.2864 6.93728,0 0,-40.2864 -6.93728,0 z m 0,-15.79695 0,7.02087 6.93728,0 0,-7.02087 -6.93728,0 z"
         style=""
         id="path4168" />
      <path
         d="m 508.74941,166.05089 0,25.65959 6.93728,0 0,-27.33123 c 0,-8.52534 -4.51341,-13.95815 -13.20591,-13.95815 -4.26267,0 -9.194,1.50447 -14.29248,4.17909 l -1.33731,-3.17611 -4.84774,0 0,40.2864 6.93728,0 0,-32.42972 c 4.09551,-1.92238 7.94027,-2.92536 11.11637,-2.92536 6.51938,0 8.69251,3.00895 8.69251,9.69549 z"
         style=""
         id="path4170" />
      <path
         d="m 554.22701,189.7881 0,1.17014 c 0,2.59104 0,4.597 -0.16716,5.76714 -0.83582,7.27162 -5.5164,11.70145 -13.95815,11.70145 -2.92536,0 -6.10147,-0.83582 -9.6119,-2.08955 l -1.8388,4.84775 c 3.34327,1.50447 8.35817,2.67461 12.28651,2.67461 6.18505,0 11.36712,-1.92238 14.62681,-5.0149 4.01192,-3.84476 5.59998,-7.68952 5.59998,-15.21188 l 0,-42.20878 -4.93133,0 -0.83582,2.34029 -1.92238,-0.83582 c -3.34326,-1.50447 -6.51937,-2.25671 -9.52831,-2.25671 -2.34029,0 -4.597,0.41791 -6.77012,1.33731 -7.3552,3.09253 -12.11936,9.94623 -12.11936,20.22678 0,5.26565 1.33731,9.36116 3.6776,12.78801 3.09252,4.51341 7.85668,7.52236 14.79397,7.52236 4.01192,0 7.27161,-0.9194 10.69846,-2.7582 z m -22.23274,-18.47157 c 0,-8.77608 4.17908,-15.12829 12.87159,-15.12829 2.75819,0 5.85072,0.66865 9.36115,2.08954 l 0,26.49542 c -2.59103,1.42088 -5.51639,2.2567 -9.02683,2.2567 -8.77608,0 -13.20591,-7.02086 -13.20591,-15.71337 z"
         style=""
         id="path4172" />
    </g>
  </g>
</svg>
